<svg xmlns="http://www.w3.org/2000/svg" xmlns:xlink="http://www.w3.org/1999/xlink" width="500" zoomAndPan="magnify" viewBox="0 0 375 374.999991" height="500" preserveAspectRatio="xMidYMid meet" version="1.2"><defs><clipPath id="daf00aefb3"><path d="M 188.660156 3.851562 L 200.410156 3.851562 L 200.410156 371.097656 L 188.660156 371.097656 Z M 188.660156 3.851562 "/></clipPath><clipPath id="51cb194c41"><path d="M 48.027344 41 L 181.703125 41 L 181.703125 338 L 48.027344 338 Z M 48.027344 41 "/></clipPath><clipPath id="9bbcec6827"><path d="M 207.757812 40.578125 L 350.792969 40.578125 L 350.792969 338.78125 L 207.757812 338.78125 Z M 207.757812 40.578125 "/></clipPath></defs><g id="5e069cf5f4"><g clip-rule="nonzero" clip-path="url(#daf00aefb3)"><path style=" stroke:none;fill-rule:nonzero;fill:#ffffff;fill-opacity:1;" d="M 188.660156 3.851562 L 200.410156 3.851562 L 200.410156 371.097656 L 188.660156 371.097656 Z M 188.660156 3.851562 "/></g><g clip-rule="nonzero" clip-path="url(#51cb194c41)"><path style=" stroke:none;fill-rule:nonzero;fill:#2563eb;fill-opacity:1;" d="M 317.070312 43.847656 C 315.808594 42.066406 313.761719 41.007812 311.578125 41.007812 L 261.589844 41.007812 C 258.726562 41.007812 256.175781 42.816406 255.226562 45.519531 L 183.617188 249.960938 L 183.402344 249.960938 L 111.789062 45.519531 C 110.839844 42.816406 108.292969 41.007812 105.425781 41.007812 L 55.441406 41.007812 C 53.257812 41.007812 51.207031 42.066406 49.945312 43.847656 C 48.679688 45.632812 48.355469 47.917969 49.078125 49.980469 L 148.234375 333.078125 C 149.1875 335.78125 151.734375 337.589844 154.597656 337.589844 L 212.417969 337.589844 C 215.285156 337.589844 217.832031 335.78125 218.78125 333.078125 L 317.941406 49.980469 C 318.660156 47.917969 318.339844 45.632812 317.070312 43.847656 Z M 317.070312 43.847656 "/></g><g clip-rule="nonzero" clip-path="url(#9bbcec6827)"><path style=" stroke:none;fill-rule:nonzero;fill:#22c55e;fill-opacity:1;" d="M 254.992188 341.292969 L 207.152344 341.292969 C 203.371094 341.292969 200.316406 338.230469 200.316406 334.457031 L 200.316406 88.417969 L 118.304688 88.417969 C 114.523438 88.417969 111.46875 85.355469 111.46875 81.582031 L 111.46875 47.410156 C 111.46875 43.640625 114.523438 40.578125 118.304688 40.578125 L 343.839844 40.578125 C 347.617188 40.578125 350.675781 43.640625 350.675781 47.410156 L 350.675781 81.582031 C 350.675781 85.355469 347.617188 88.417969 343.839844 88.417969 L 261.828125 88.417969 L 261.828125 334.457031 C 261.828125 338.230469 258.773438 341.292969 254.992188 341.292969 Z M 254.992188 341.292969 "/></g></g></svg>