<svg xmlns="http://www.w3.org/2000/svg" xmlns:xlink="http://www.w3.org/1999/xlink" width="500" zoomAndPan="magnify" viewBox="0 0 375 374.999991" height="500" preserveAspectRatio="xMidYMid meet" version="1.2"><defs><clipPath id="32effb3a85"><path d="M 177.394531 17.542969 L 188.273438 17.542969 L 188.273438 357.457031 L 177.394531 357.457031 Z M 177.394531 17.542969 "/></clipPath><clipPath id="666dd95bc3"><path d="M 47.226562 51.535156 L 170.957031 51.535156 L 170.957031 327 L 47.226562 327 Z M 47.226562 51.535156 "/></clipPath><clipPath id="e5e7038f76"><path d="M 195.070312 51.535156 L 327.464844 51.535156 L 327.464844 327.542969 L 195.070312 327.542969 Z M 195.070312 51.535156 "/></clipPath></defs><g id="73f33f0e46"><rect x="0" width="375" y="0" height="374.999991" style="fill:#ffffff;fill-opacity:1;stroke:none;"/><rect x="0" width="375" y="0" height="374.999991" style="fill:#000000;fill-opacity:1;stroke:none;"/><g clip-rule="nonzero" clip-path="url(#32effb3a85)"><path style=" stroke:none;fill-rule:nonzero;fill:#ffffff;fill-opacity:1;" d="M 177.394531 17.542969 L 188.273438 17.542969 L 188.273438 357.457031 L 177.394531 357.457031 Z M 177.394531 17.542969 "/></g><g clip-rule="nonzero" clip-path="url(#666dd95bc3)"><path style=" stroke:none;fill-rule:nonzero;fill:#2563eb;fill-opacity:1;" d="M 296.25 54.558594 C 295.082031 52.914062 293.1875 51.933594 291.164062 51.933594 L 244.898438 51.933594 C 242.246094 51.933594 239.890625 53.605469 239.007812 56.109375 L 172.726562 245.335938 L 172.527344 245.335938 L 106.246094 56.109375 C 105.367188 53.605469 103.007812 51.933594 100.359375 51.933594 L 54.089844 51.933594 C 52.070312 51.933594 50.171875 52.914062 49.003906 54.558594 C 47.832031 56.214844 47.535156 58.328125 48.199219 60.238281 L 139.980469 322.269531 C 140.859375 324.769531 143.21875 326.441406 145.871094 326.441406 L 199.386719 326.441406 C 202.039062 326.441406 204.394531 324.769531 205.277344 322.269531 L 297.054688 60.238281 C 297.722656 58.328125 297.421875 56.214844 296.25 54.558594 Z M 296.25 54.558594 "/></g><g clip-rule="nonzero" clip-path="url(#e5e7038f76)"><path style=" stroke:none;fill-rule:nonzero;fill:#22c55e;fill-opacity:1;" d="M 238.792969 329.867188 L 194.511719 329.867188 C 191.011719 329.867188 188.183594 327.035156 188.183594 323.542969 L 188.183594 95.816406 L 112.277344 95.816406 C 108.777344 95.816406 105.949219 92.980469 105.949219 89.488281 L 105.949219 57.859375 C 105.949219 54.367188 108.777344 51.535156 112.277344 51.535156 L 321.027344 51.535156 C 324.523438 51.535156 327.351562 54.367188 327.351562 57.859375 L 327.351562 89.488281 C 327.351562 92.980469 324.523438 95.816406 321.027344 95.816406 L 245.117188 95.816406 L 245.117188 323.542969 C 245.117188 327.035156 242.289062 329.867188 238.792969 329.867188 Z M 238.792969 329.867188 "/></g></g></svg>