<svg xmlns="http://www.w3.org/2000/svg" xmlns:xlink="http://www.w3.org/1999/xlink" width="500" zoomAndPan="magnify" viewBox="0 0 375 374.999991" height="500" preserveAspectRatio="xMidYMid meet" version="1.2"><defs><clipPath id="c32286b8d2"><path d="M 39.503906 6.503906 L 334.945312 6.503906 L 334.945312 368.992188 L 39.503906 368.992188 Z M 39.503906 6.503906 "/></clipPath><clipPath id="d68d5626cd"><path d="M 183.183594 52.660156 L 192.273438 52.660156 L 192.273438 336.742188 L 183.183594 336.742188 Z M 183.183594 52.660156 "/></clipPath><clipPath id="e7eab4d412"><path d="M 74.394531 81.070312 L 177.800781 81.070312 L 177.800781 311 L 74.394531 311 Z M 74.394531 81.070312 "/></clipPath><clipPath id="2e8f254ca7"><path d="M 197.953125 81.070312 L 308.601562 81.070312 L 308.601562 311.742188 L 197.953125 311.742188 Z M 197.953125 81.070312 "/></clipPath></defs><g id="afa04eb0fe"><g clip-rule="nonzero" clip-path="url(#c32286b8d2)"><path style="fill-rule:evenodd;fill:#000000;fill-opacity:1;stroke-width:2;stroke-linecap:butt;stroke-linejoin:miter;stroke:#000000;stroke-opacity:1;stroke-miterlimit:4;" d="M 745.504086 1.504485 L 752.000824 1.504485 L 779.995857 16.00627 C 798.659212 25.661044 811.003014 31.999443 817.007574 35.001842 C 822.992448 38.004241 843.407954 47.757133 878.254092 64.240894 C 913.080543 80.744279 931.074538 89.084277 932.255763 89.241265 C 933.417301 89.417877 942.67023 93.342582 959.994864 100.995756 C 977.339184 108.668554 990.66734 114.339753 999.999018 118.009352 C 1009.330696 121.659328 1022.836035 126.663327 1040.495349 133.001725 C 1058.17435 139.340124 1069.336927 143.323699 1074.002766 144.991699 C 1078.668605 146.659699 1084.495981 148.661298 1091.504583 150.996498 C 1098.493498 153.331697 1107.490495 156.157485 1118.495575 159.493484 C 1129.500655 162.829483 1143.498171 166.832682 1160.507812 171.503081 C 1177.497765 176.17348 1193.995541 180.333667 1210.00114 184.003266 C 1226.00674 187.672866 1236.342458 190.008065 1241.008297 191.008865 C 1245.674136 192.009665 1260.49851 194.835452 1285.501107 199.505851 C 1310.503703 204.17625 1326.174622 207.002038 1332.494176 208.002837 C 1338.833417 209.003637 1354.327151 211.495825 1378.995067 215.499024 C 1403.662983 219.502223 1416.164282 221.503822 1416.498962 221.503822 C 1416.833642 221.503822 1428.842764 223.839022 1452.506638 228.509421 C 1476.170513 233.160196 1488.081199 235.57389 1488.258382 235.750501 L 1488.494627 236.005607 L 1486.998409 310.496508 C 1485.994368 360.163649 1483.494108 424.332575 1479.49763 503.003287 C 1475.501152 581.673998 1472.331532 636.659114 1470.008456 667.997884 C 1467.665693 699.336653 1465.007936 726.162011 1461.995813 748.493583 C 1459.003376 770.825154 1455.499075 791.998937 1451.502597 811.995309 C 1447.506119 831.991681 1443.174961 852.164665 1438.509122 872.494636 C 1433.823596 892.824608 1429.669621 910.662392 1426.007823 926.007989 C 1422.326339 941.333961 1417.99518 957.837346 1412.994661 975.498518 C 1407.994142 993.159691 1405.001705 1003.834888 1403.997664 1007.504487 C 1402.993623 1011.174086 1401.497404 1015.824862 1399.509009 1021.496061 C 1397.500926 1027.167259 1395.158163 1034.172858 1392.500407 1042.493232 C 1389.842651 1050.83323 1385.668989 1062.842827 1379.999109 1078.5024 C 1374.329229 1094.161973 1369.66339 1106.662158 1366.001592 1116.002956 C 1362.339795 1125.324131 1357.831452 1136.50954 1352.496253 1149.500313 C 1347.161053 1162.491087 1340.329635 1178.170283 1332.001999 1196.498655 C 1323.674362 1214.827028 1318.673843 1225.502225 1317.000441 1228.504624 C 1315.327039 1231.507024 1309.24373 1242.417703 1298.750514 1261.256287 C 1288.257298 1280.075248 1281.918057 1291.241033 1279.752478 1294.753644 C 1277.586899 1298.246632 1272.409196 1307.077218 1264.258743 1321.245403 C 1256.088604 1335.413588 1250.753404 1344.420786 1248.253144 1348.247373 C 1245.752885 1352.07396 1241.913903 1358.078759 1236.755887 1366.242145 C 1231.578184 1374.425155 1227.42421 1380.74393 1224.254589 1385.257341 C 1221.084969 1389.751128 1217.423171 1395.088727 1213.249509 1401.250514 C 1209.075847 1407.412301 1205.079369 1413.083499 1201.240388 1418.244486 C 1197.421094 1423.425097 1194.40897 1427.742272 1192.243391 1431.254883 C 1190.077812 1434.747871 1186.908191 1439.241658 1182.754216 1444.755868 C 1178.580555 1450.250455 1174.584077 1455.745042 1170.745095 1461.259253 C 1166.925801 1466.75384 1162.752139 1472.425038 1158.243797 1478.253225 C 1153.755142 1484.081412 1149.916161 1489.085411 1146.74654 1493.245598 C 1143.57692 1497.425409 1136.82425 1505.33369 1126.508218 1517.009687 C 1116.172499 1528.666061 1104.005881 1541.990434 1090.008365 1557.002431 C 1075.991161 1571.994804 1063.667047 1584.828589 1052.996647 1595.503786 C 1042.326248 1606.15936 1035.258585 1612.909853 1031.754284 1615.755264 C 1028.249983 1618.581052 1020.079843 1625.743638 1007.243865 1637.243024 C 994.407886 1648.742409 986.592114 1655.748008 983.757174 1658.240195 C 980.922234 1660.752007 973.913632 1666.913793 962.751055 1676.745179 C 951.588479 1686.576565 944.245197 1692.914964 940.740896 1695.740751 C 937.256282 1698.586162 933.259804 1701.922162 928.751462 1705.748749 C 924.24312 1709.575336 918.002314 1714.834441 910.009358 1721.50644 C 901.996715 1728.158814 895.913406 1733.084319 891.759431 1736.243707 C 887.58577 1739.422718 883.589292 1742.248505 879.75031 1744.740693 C 875.911329 1747.252504 868.922414 1751.589303 858.744192 1757.75109 C 848.585657 1763.912877 841.911735 1768.092688 838.742115 1770.251275 C 835.592181 1772.409863 832.009132 1774.666568 827.992967 1777.001768 C 823.996489 1779.336967 819.842514 1782.005767 815.491669 1785.008166 C 811.16051 1787.990942 807.99089 1790.169153 806.002494 1791.503553 C 803.994412 1792.837952 799.663254 1795.173152 793.009019 1798.509151 C 786.335098 1801.825527 778.342142 1805.671738 768.990777 1810.008537 C 759.659099 1814.325712 753.162362 1817.171123 749.500564 1818.505523 L 744.007868 1820.507122 L 738.003307 1818.996111 C 734.006829 1817.995311 729.675671 1816.327312 725.009832 1813.992112 C 720.324306 1811.656913 712.508534 1807.673337 701.503454 1802.002139 C 690.498374 1796.33094 684.159133 1792.837952 682.505418 1791.503553 C 680.832016 1790.169153 676.579606 1787.245248 669.748188 1782.751461 C 662.91677 1778.257673 657.758754 1774.921674 654.254453 1772.743463 C 650.750152 1770.584875 643.918734 1766.424688 633.740512 1760.243278 C 623.581976 1754.081491 616.593062 1749.744692 612.75408 1747.252504 C 608.915099 1744.740693 604.918621 1741.914905 600.744959 1738.755518 C 596.590985 1735.576507 591.82671 1731.828414 586.491511 1727.491615 C 581.175998 1723.174439 574.088648 1717.248135 565.249147 1709.751948 C 556.409647 1702.255762 548.751371 1695.740751 542.254633 1690.246164 C 535.757896 1684.751577 526.249034 1676.411579 513.747736 1665.245794 C 501.246438 1654.080008 493.253482 1647.07441 489.749181 1644.248622 C 486.24488 1641.422835 478.586604 1634.750836 466.754667 1624.25225 C 454.92273 1613.753664 448.327557 1607.82736 447.008522 1606.49296 C 445.6698 1605.158561 439.743988 1599.25188 429.250773 1588.753294 C 418.757557 1578.254708 411.414275 1570.758522 407.240613 1566.245111 C 403.086638 1561.751324 393.912457 1551.743326 379.757444 1536.240741 C 365.582744 1520.75778 357.077923 1511.240371 354.242983 1507.747383 C 351.408043 1504.254396 347.254069 1499.073785 341.741685 1492.244799 C 336.248989 1485.415812 331.91783 1479.921225 328.74821 1475.741414 C 325.578589 1471.581227 322.408969 1467.244428 319.259036 1462.750641 C 316.089415 1458.256853 312.742611 1453.586455 309.257997 1448.759067 C 305.753696 1443.912057 302.584076 1439.575258 299.749136 1435.74867 C 296.914195 1431.922083 294.492684 1428.50759 292.504289 1425.50519 C 290.496206 1422.502791 287.759701 1418.578086 284.255401 1413.750699 C 280.7511 1408.923312 277.758663 1404.586513 275.258403 1400.740302 C 272.758144 1396.913715 269.411339 1391.909716 265.257365 1385.747929 C 261.083703 1379.586142 257.914083 1374.758755 255.748503 1371.246144 C 253.582924 1367.753157 250.078623 1362.25857 245.255288 1354.74276 C 240.412265 1347.246573 237.242645 1342.085586 235.746426 1339.259799 C 234.250208 1336.414388 230.076546 1329.251801 223.245128 1317.752415 C 216.41371 1306.25303 211.925055 1298.756843 209.759476 1295.244232 C 207.574209 1291.751245 202.160261 1282.174965 193.497944 1266.495768 C 184.835628 1250.836196 178.33889 1239.00321 174.007732 1230.996812 C 169.656886 1222.990414 165.837592 1215.494227 162.490788 1208.508253 C 159.16367 1201.502654 154.497831 1191.004068 148.493271 1176.992872 C 142.508397 1163.001298 139.496274 1155.838712 139.496274 1155.505112 C 139.496274 1155.171512 136.503837 1147.498714 130.499276 1132.506341 C 124.494716 1117.494344 119.828877 1105.661359 116.50176 1097.007384 C 113.174643 1088.333786 108.508804 1075.166401 102.504243 1057.505229 C 96.499683 1039.824433 90.495122 1021.005472 84.490562 1001.009101 C 78.505688 980.993105 71.831767 956.659934 64.508172 928.009588 C 57.164889 899.339618 52.006873 878.008847 48.99475 863.99765 C 46.002313 850.006077 41.828651 829.676105 36.493451 803.007735 C 31.158252 776.339364 28.008318 758.83518 27.004277 750.495182 C 26.000236 742.174808 23.834657 716.664225 20.507539 674.002682 C 17.160735 631.341139 14.995156 599.158558 13.991115 577.494187 C 13.00676 555.829816 11.825535 532.831044 10.506501 508.497874 C 9.167779 484.164703 7.33688 444.328947 4.994117 388.990607 C 2.671042 333.671891 1.509504 294.503335 1.509504 271.504564 L 1.509504 237.006407 L 4.757872 235.24029 C 6.923452 234.082502 12.829577 232.669608 22.495935 231.001608 C 32.162293 229.333609 45.490449 227.175021 62.500089 224.506222 C 79.509729 221.837422 105.339183 217.500623 140.008138 211.495825 C 174.657405 205.491026 199.502505 201.173851 214.504063 198.505051 C 229.505621 195.836252 249.330514 191.676065 273.99843 186.004866 C 298.666346 180.333667 320.007145 174.996069 338.001139 169.99207 C 355.995134 165.007694 371.508556 160.337295 384.502031 156.000496 C 397.495506 151.663697 407.673729 148.327698 414.997324 145.992499 C 422.340606 143.657299 429.329521 141.341723 436.003442 139.006524 C 442.657677 136.671324 456.005519 131.667326 476.007596 123.994527 C 496.009674 116.341353 514.751777 108.59006 532.253595 100.74065 C 549.755412 92.910864 559.08709 88.907665 560.248628 88.750677 C 561.410166 88.574065 569.836238 84.825972 585.507156 77.506397 C 601.158388 70.167199 615.333088 63.4952 627.991883 57.490402 C 640.670365 51.505227 653.171663 45.500428 665.495778 39.495629 C 677.839579 33.490831 693.175817 25.661044 711.504492 16.00627 L 739.007348 1.504485 Z M 745.504086 1.504485 " transform="matrix(0.198417,0,0,0.19906,39.403614,6.403643)"/></g><g clip-rule="nonzero" clip-path="url(#d68d5626cd)"><path style=" stroke:none;fill-rule:nonzero;fill:#ffffff;fill-opacity:1;" d="M 183.183594 52.660156 L 192.273438 52.660156 L 192.273438 336.742188 L 183.183594 336.742188 Z M 183.183594 52.660156 "/></g><g clip-rule="nonzero" clip-path="url(#e7eab4d412)"><path style=" stroke:none;fill-rule:nonzero;fill:#2563eb;fill-opacity:1;" d="M 282.515625 83.597656 C 281.539062 82.222656 279.953125 81.402344 278.265625 81.402344 L 239.597656 81.402344 C 237.382812 81.402344 235.410156 82.800781 234.675781 84.890625 L 179.28125 243.039062 L 179.113281 243.039062 L 123.722656 84.890625 C 122.984375 82.800781 121.015625 81.402344 118.800781 81.402344 L 80.132812 81.402344 C 78.441406 81.402344 76.855469 82.222656 75.882812 83.597656 C 74.902344 84.980469 74.652344 86.746094 75.210938 88.34375 L 151.914062 307.332031 C 152.648438 309.425781 154.621094 310.820312 156.835938 310.820312 L 201.5625 310.820312 C 203.777344 310.820312 205.75 309.425781 206.484375 307.332031 L 283.1875 88.34375 C 283.746094 86.746094 283.496094 84.980469 282.515625 83.597656 Z M 282.515625 83.597656 "/></g><g clip-rule="nonzero" clip-path="url(#2e8f254ca7)"><path style=" stroke:none;fill-rule:nonzero;fill:#22c55e;fill-opacity:1;" d="M 234.496094 313.6875 L 197.488281 313.6875 C 194.5625 313.6875 192.199219 311.316406 192.199219 308.398438 L 192.199219 118.078125 L 128.757812 118.078125 C 125.835938 118.078125 123.472656 115.707031 123.472656 112.789062 L 123.472656 86.355469 C 123.472656 83.4375 125.835938 81.070312 128.757812 81.070312 L 303.222656 81.070312 C 306.144531 81.070312 308.507812 83.4375 308.507812 86.355469 L 308.507812 112.789062 C 308.507812 115.707031 306.144531 118.078125 303.222656 118.078125 L 239.78125 118.078125 L 239.78125 308.398438 C 239.78125 311.316406 237.417969 313.6875 234.496094 313.6875 Z M 234.496094 313.6875 "/></g></g></svg>