<svg xmlns="http://www.w3.org/2000/svg" xmlns:xlink="http://www.w3.org/1999/xlink" width="500" zoomAndPan="magnify" viewBox="0 0 375 374.999991" height="500" preserveAspectRatio="xMidYMid meet" version="1.2"><defs><clipPath id="cdc5f7ea7d"><path d="M 39.503906 6.503906 L 335.753906 6.503906 L 335.753906 368.753906 L 39.503906 368.753906 Z M 39.503906 6.503906 "/></clipPath><clipPath id="59fee9a914"><path d="M 79.019531 72.445312 L 181.769531 72.445312 L 181.769531 302.695312 L 79.019531 302.695312 Z M 79.019531 72.445312 "/></clipPath><clipPath id="99a1635c17"><path d="M 189.796875 71.03125 L 295.753906 71.03125 L 295.753906 304 L 189.796875 304 Z M 189.796875 71.03125 "/></clipPath></defs><g id="af3eef7d6e"><g clip-rule="nonzero" clip-path="url(#cdc5f7ea7d)"><path style="fill-rule:evenodd;fill:#2563eb;fill-opacity:1;stroke-width:2;stroke-linecap:butt;stroke-linejoin:miter;stroke:#000000;stroke-opacity:1;stroke-miterlimit:4;" d="M 745.500649 1.498108 L 752.004978 1.498108 L 780.006998 16.000207 C 798.675012 25.668273 810.995901 31.995747 817.008967 35.002279 C 823.002381 38.008812 843.419293 47.75548 878.259702 64.242284 C 913.08046 80.748738 931.080355 89.080567 932.259388 89.257422 C 933.41877 89.414627 942.674174 93.325084 960.005951 101.008446 C 977.337728 108.672156 990.660795 114.331512 999.994801 118.006163 C 1009.328808 121.661164 1022.82873 126.672052 1040.494566 132.999526 C 1058.160402 139.327 1069.341559 143.33571 1073.998738 145.006006 C 1078.675566 146.676302 1084.492126 148.661007 1091.507369 150.999421 C 1098.502962 153.337835 1107.502909 156.167513 1118.507212 159.508105 C 1129.491864 162.829046 1143.5027 166.837757 1160.500418 171.494935 C 1177.498135 176.171764 1194.004589 180.337678 1210.00013 183.992679 C 1225.99567 187.66733 1236.331854 190.005744 1241.008683 191.007922 C 1245.665861 191.990449 1260.502019 194.839777 1285.497507 199.496955 C 1310.492995 204.173784 1326.174126 207.003462 1332.5016 208.005639 C 1338.829074 209.007817 1354.333351 211.503436 1378.994779 215.492495 C 1403.675858 219.501206 1416.173602 221.505561 1416.507662 221.505561 C 1416.841721 221.505561 1428.828551 223.824325 1452.507452 228.501153 C 1476.166703 233.158332 1488.074931 235.575348 1488.251786 235.752203 L 1488.507243 236.00766 L 1486.994151 310.50286 C 1485.991973 360.159776 1483.496355 424.338442 1479.507295 502.999556 C 1475.498585 581.66067 1472.334848 636.662534 1469.996433 668.005146 C 1467.658019 699.328108 1465.005196 726.170747 1461.998663 748.493761 C 1458.99213 770.836426 1455.494334 792.000058 1451.505274 812.004308 C 1447.496564 832.008559 1443.173445 852.170013 1438.496617 872.508323 C 1433.839438 892.826982 1429.673524 910.669673 1425.998873 925.997095 C 1422.324222 941.324516 1418.001103 957.830971 1412.990215 975.496807 C 1407.998977 993.162643 1404.992445 1003.832886 1403.990267 1007.507537 C 1403.00774 1011.162538 1401.494648 1015.839367 1399.490293 1021.498722 C 1397.505589 1027.158078 1395.167174 1034.173321 1392.494701 1042.50515 C 1389.841878 1050.83698 1385.675963 1062.823809 1379.996957 1078.504941 C 1374.337601 1094.166422 1369.660773 1106.664166 1366.005772 1115.998172 C 1362.331121 1125.332179 1357.831147 1136.493686 1352.505851 1149.502344 C 1347.160903 1162.491352 1340.342166 1178.172483 1331.990686 1196.506438 C 1323.658857 1214.840392 1318.667619 1225.490985 1316.997324 1228.497518 C 1315.327028 1231.504051 1309.255011 1242.410101 1298.741971 1261.254969 C 1288.248583 1280.080187 1281.921108 1291.241694 1279.759549 1294.759141 C 1277.578339 1298.256937 1272.410247 1307.08003 1264.255272 1321.24807 C 1256.080647 1335.41611 1250.755351 1344.416057 1248.259732 1348.247913 C 1245.744463 1352.079768 1241.912608 1358.092834 1236.744515 1366.247808 C 1231.576423 1374.422433 1227.410509 1380.749907 1224.246772 1385.249881 C 1221.083034 1389.749855 1217.408383 1395.075151 1213.242469 1401.245421 C 1209.076554 1407.415691 1205.087494 1413.075046 1201.255639 1418.243139 C 1197.423784 1423.411231 1194.417251 1427.754 1192.255691 1431.251797 C 1190.074481 1434.749593 1186.910744 1439.249567 1182.74483 1444.751718 C 1178.578915 1450.253869 1174.589855 1455.756021 1170.758 1461.258172 C 1166.926144 1466.740673 1162.740579 1472.419679 1158.240605 1478.25589 C 1153.740632 1484.0921 1149.908776 1489.083338 1146.745039 1493.249252 C 1143.581302 1497.415167 1136.841167 1505.334335 1126.504982 1517.006756 C 1116.168798 1528.659527 1104.005113 1542.002244 1089.994278 1556.995606 C 1076.003093 1572.008619 1063.662553 1584.840422 1052.99231 1595.491016 C 1042.341717 1606.161259 1035.247871 1612.921045 1031.750075 1615.750723 C 1028.252279 1618.580401 1020.077654 1625.752848 1007.245851 1637.248414 C 994.414048 1648.743981 986.593133 1655.759224 983.743804 1658.254842 C 980.914126 1660.750461 973.918534 1666.920731 962.757027 1676.746001 C 951.575869 1686.590922 944.246217 1692.918396 940.748421 1695.748074 C 937.250625 1698.577752 933.241915 1701.918344 928.741941 1705.750199 C 924.241967 1709.582055 917.993095 1714.828749 909.995325 1721.490282 C 901.997555 1728.171466 895.925538 1733.084101 891.759623 1736.247838 C 887.574058 1739.411575 883.584998 1742.241253 879.753143 1744.756522 C 875.921288 1747.252141 868.925695 1751.57526 858.746715 1757.74553 C 848.587385 1763.9158 841.925852 1768.081714 838.742465 1770.243274 C 835.578728 1772.424484 832.002329 1774.664645 827.993619 1777.00306 C 824.004559 1779.341474 819.838644 1781.994297 815.495875 1785.00083 C 811.172756 1788.007363 808.009019 1790.168922 806.004664 1791.505159 C 804.000309 1792.841396 799.657539 1795.160159 792.996006 1798.500751 C 786.334473 1801.841343 778.336703 1805.673199 769.002696 1809.996318 C 759.668689 1814.339087 753.16436 1817.168765 749.509359 1818.505002 L 744.007208 1820.509357 L 737.994143 1818.996265 C 734.005083 1817.994088 729.662313 1816.323792 725.005135 1814.005028 C 720.328306 1811.666613 712.507391 1807.657903 701.503088 1801.998547 C 690.498786 1796.339192 684.171312 1792.841396 682.501016 1791.505159 C 680.83072 1790.168922 676.586203 1787.240991 669.747815 1782.741018 C 662.909427 1778.241044 657.741334 1774.920102 654.243538 1772.758543 C 650.745742 1770.577333 643.907354 1766.411418 633.748024 1760.241149 C 623.588695 1754.090529 616.593102 1749.74776 612.741596 1747.252141 C 608.909741 1744.756522 604.920681 1741.907194 600.754766 1738.743457 C 596.588852 1735.57972 591.833421 1731.826467 586.508124 1727.503348 C 581.163177 1723.160578 574.088983 1717.245766 565.246239 1709.75891 C 556.423147 1702.252403 548.759436 1695.748074 542.255107 1690.245923 C 535.750778 1684.743771 526.259567 1676.411942 513.742172 1665.250435 C 501.244428 1654.088928 493.246658 1647.073685 489.748862 1644.244007 C 486.251066 1641.414329 478.587355 1634.752796 466.75773 1624.259407 C 454.908454 1613.746368 448.325522 1607.831555 447.008936 1606.495318 C 445.672699 1605.159082 439.757887 1599.244269 429.244847 1588.75088 C 418.751459 1578.257491 411.421807 1570.750985 407.255892 1566.251011 C 403.089978 1561.751037 393.913175 1551.748912 379.745135 1536.244635 C 365.577096 1520.740359 357.088062 1511.249148 354.258384 1507.751351 C 351.409056 1504.253555 347.243141 1499.085463 341.74099 1492.247075 C 336.258489 1485.408687 331.915719 1479.926186 328.751982 1475.740621 C 325.588245 1471.574706 322.424508 1467.251587 319.241121 1462.751613 C 316.077384 1458.251639 312.756442 1453.574811 309.258646 1448.740778 C 305.741199 1443.926395 302.577462 1439.583626 299.747784 1435.75177 C 296.918107 1431.919915 294.50109 1428.500721 292.496735 1425.494188 C 290.49238 1422.507306 287.741304 1418.577198 284.243508 1413.743165 C 280.745712 1408.909132 277.758829 1404.586013 275.24356 1400.754157 C 272.747941 1396.922302 269.40735 1391.911414 265.241435 1385.741144 C 261.07552 1379.590525 257.911783 1374.756492 255.750224 1371.258696 C 253.588664 1367.741249 250.090868 1362.258748 245.256835 1354.752242 C 240.422802 1347.245735 237.259065 1342.077643 235.745973 1339.247965 C 234.252532 1336.418287 230.086618 1329.24584 223.24823 1317.750274 C 216.409841 1306.254707 211.909868 1298.748201 209.748308 1295.250405 C 207.586749 1291.752608 202.163199 1282.163144 193.497311 1266.501664 C 184.831422 1250.840183 178.327094 1238.990907 174.003975 1230.993137 C 169.661205 1222.995366 165.82935 1215.50851 162.508408 1208.493267 C 159.167816 1201.497675 154.490988 1191.004286 148.497573 1176.993451 C 142.504158 1163.002266 139.497625 1155.829818 139.497625 1155.495759 C 139.497625 1155.1617 136.491092 1147.497989 130.497678 1132.504627 C 124.504263 1117.491614 119.827434 1105.661988 116.506493 1096.9961 C 113.165901 1088.330211 108.508723 1075.164349 102.495657 1057.498513 C 96.502242 1039.832677 90.508827 1021.007459 84.495762 1001.003208 C 78.502347 980.998958 71.840814 956.671589 64.491511 928.00145 C 57.16186 899.331311 51.993768 877.990824 49.006885 863.999639 C 46.000353 850.008454 41.834438 829.670144 36.509141 803.004361 C 31.164194 776.338577 28.000457 758.829945 26.99828 750.498116 C 25.996102 742.166287 23.834543 716.659885 20.493951 673.998561 C 17.173009 631.337237 14.991799 599.169302 14.009272 577.494756 C 13.007095 555.83986 11.828062 532.829077 10.491826 508.501707 C 9.175239 484.174338 7.328089 444.342692 5.009325 389.00677 C 2.67091 333.670847 1.491878 294.50732 1.491878 271.496536 L 1.491878 236.990187 L 4.753868 235.241289 C 6.915427 234.081907 12.83024 232.667068 22.498306 230.996772 C 32.166372 229.326476 45.509089 227.164917 62.506807 224.492443 C 79.504524 221.83962 105.325335 217.496851 140.008539 211.503436 C 174.672093 205.49037 199.490726 201.167251 214.503739 198.494778 C 229.497101 195.841955 249.324497 191.67604 274.005576 185.997034 C 298.667005 180.337678 320.007492 174.992731 338.007387 170.001494 C 356.007282 164.990606 371.491908 160.333428 384.500566 155.990658 C 397.509224 151.667539 407.668554 148.326947 414.998205 146.008184 C 422.327857 143.669769 429.3431 141.331355 436.004633 138.992941 C 442.666167 136.674177 456.008884 131.663289 475.993484 123.999578 C 495.997734 116.335867 514.74435 108.573904 532.252982 100.752988 C 549.741963 92.912423 559.07597 88.923363 560.255002 88.746508 C 561.414384 88.589304 569.824815 84.836051 585.505947 77.506399 C 601.167428 70.157097 615.335468 63.495563 627.990416 57.502148 C 640.665015 51.508734 653.162758 45.495668 665.503298 39.502253 C 677.824187 33.508838 693.171259 25.668273 711.505214 16.000207 L 738.99632 1.498108 Z M 745.500649 1.498108 " transform="matrix(0.198786,0,0,0.198786,39.402654,6.405322)"/></g><g clip-rule="nonzero" clip-path="url(#59fee9a914)"><path style=" stroke:none;fill-rule:nonzero;fill:#ffffff;fill-opacity:1;" d="M 287.152344 74.972656 C 286.175781 73.597656 284.589844 72.777344 282.902344 72.777344 L 244.230469 72.777344 C 242.015625 72.777344 240.042969 74.175781 239.308594 76.265625 L 183.910156 234.425781 L 183.742188 234.425781 L 128.347656 76.265625 C 127.609375 74.175781 125.640625 72.777344 123.421875 72.777344 L 84.753906 72.777344 C 83.0625 72.777344 81.480469 73.597656 80.503906 74.972656 C 79.523438 76.355469 79.273438 78.125 79.832031 79.71875 L 156.539062 298.722656 C 157.277344 300.816406 159.246094 302.210938 161.460938 302.210938 L 206.191406 302.210938 C 208.40625 302.210938 210.378906 300.816406 211.113281 298.722656 L 287.824219 79.71875 C 288.382812 78.125 288.132812 76.355469 287.152344 74.972656 Z M 287.152344 74.972656 "/></g><g clip-rule="nonzero" clip-path="url(#99a1635c17)"><path style=" stroke:none;fill-rule:nonzero;fill:#ffffff;fill-opacity:1;" d="M 221.632812 303.683594 L 184.621094 303.683594 C 181.699219 303.683594 179.335938 301.316406 179.335938 298.394531 L 179.335938 108.042969 L 115.882812 108.042969 C 112.957031 108.042969 110.59375 105.675781 110.59375 102.753906 L 110.59375 76.316406 C 110.59375 73.398438 112.957031 71.03125 115.882812 71.03125 L 290.375 71.03125 C 293.296875 71.03125 295.660156 73.398438 295.660156 76.316406 L 295.660156 102.753906 C 295.660156 105.675781 293.296875 108.042969 290.375 108.042969 L 226.921875 108.042969 L 226.921875 298.394531 C 226.921875 301.316406 224.558594 303.683594 221.632812 303.683594 Z M 221.632812 303.683594 "/></g></g></svg>